<svg id="Layer_1" data-name="Layer 1" xmlns="http://www.w3.org/2000/svg" xmlns:xlink="http://www.w3.org/1999/xlink" viewBox="0 0 1366.5 768.5"><defs><style>.cls-1{fill:url(#linear-gradient);}.cls-2{fill:url(#linear-gradient-2);}</style><linearGradient id="linear-gradient" x1="19.4" y1="384" x2="1385.4" y2="384" gradientUnits="userSpaceOnUse"><stop offset="0" stop-color="#5fb0ff"/><stop offset="0.09" stop-color="#649cff"/><stop offset="0.26" stop-color="#6c7bff"/><stop offset="0.43" stop-color="#7361ff"/><stop offset="0.61" stop-color="#774eff"/><stop offset="0.8" stop-color="#7a43ff"/><stop offset="1" stop-color="#7b3fff"/></linearGradient><linearGradient id="linear-gradient-2" x1="155.14" y1="758.08" x2="1290.4" y2="113.87" gradientUnits="userSpaceOnUse"><stop offset="0" stop-color="#e1d4ff"/><stop offset="1" stop-color="#7155ff"/></linearGradient></defs><rect class="cls-1" width="1366" height="768"/><path class="cls-2" d="M1103,0C856,52.82,757.64,149,714,229c-34.08,62.47-29.91,106.13-84,153-89.22,77.32-181.21,28.38-272,114-50.4,47.53-32.34,72.32-89,114-53.47,39.33-93.84,35.13-154,80a322.11,322.11,0,0,0-74,78h84c2.23-.45,4.63-1,7.14-1.76,45.22-60.39,122.06-78.34,191.18-105.46,18.15-8.74,33.51-22,50.53-33.14C486.34,544.66,614.93,613.53,759,509c8.24-6,10.37-8.05,18-14,90.56-70.56,257.06-141.6,589-153V0Z" transform="translate(0.5 0.5)"/></svg>