<svg id="Layer_1" data-name="Layer 1" xmlns="http://www.w3.org/2000/svg" xmlns:xlink="http://www.w3.org/1999/xlink" viewBox="0 0 1366 768.92"><defs><style>.cls-1{fill:url(#linear-gradient);}.cls-2{fill:url(#linear-gradient-2);}</style><linearGradient id="linear-gradient" y1="384" x2="1366" y2="384" gradientUnits="userSpaceOnUse"><stop offset="0" stop-color="#ff9e5f" stop-opacity="0.7"/><stop offset="0.27" stop-color="#ffb165" stop-opacity="0.67"/><stop offset="1" stop-color="#ffdd74" stop-opacity="0.6"/></linearGradient><linearGradient id="linear-gradient-2" x1="174.88" y1="771.05" x2="1310.14" y2="126.84" gradientTransform="matrix(-1, 0, 0, 1, 1406.83, 0)" gradientUnits="userSpaceOnUse"><stop offset="0" stop-color="#ffe3bf"/><stop offset="0.24" stop-color="#ffc48b"/><stop offset="0.48" stop-color="#ffa95d"/><stop offset="0.7" stop-color="#ff953b"/><stop offset="0.88" stop-color="#ff8826"/><stop offset="1" stop-color="#ff841f"/></linearGradient></defs><rect class="cls-1" width="1366" height="768"/><path class="cls-2" d="M263,1C510,53.82,608.36,150,652,230c34.08,62.47,29.91,106.13,84,153,89.22,77.32,181.21,28.38,272,114,50.4,47.53,32.34,72.32,89,114,53.47,39.33,93.84,35.13,154,80a322.11,322.11,0,0,1,74,78h-84c-2.23-.45-4.63-1-7.14-1.76-45.22-60.39-122.06-78.34-191.18-105.46-18.15-8.74-33.51-22-50.53-33.14C879.66,545.66,751.07,614.53,607,510c-8.24-6-10.37-8.05-18-14C498.44,425.44,331.94,354.4,0,343V1Z" transform="translate(0.58 -0.08)"/></svg>